<?xml version="1.0" encoding="utf-8"?>
<!-- Generator: Adobe Illustrator 25.2.1, SVG Export Plug-In . SVG Version: 6.00 Build 0)  -->
<svg version="1.1" id="Capa_1" xmlns="http://www.w3.org/2000/svg" xmlns:xlink="http://www.w3.org/1999/xlink" x="0px" y="0px"
	 viewBox="0 0 512 512" style="enable-background:new 0 0 512 512;" xml:space="preserve">
<style type="text/css">
	.st0{fill:#FFFFFF;}
</style>
<g>
	<path class="st0" d="M402.2,318.5c1.6-8.8,2.4-17.7,2.4-26.7c0-80-63.6-145.5-142.8-148.5v-26.7h8.2c21.8,0,39.5-17.7,39.5-39.5
		V66.3c0-4.9-4-8.9-8.9-8.9h-10.9c-18.4,0-33.9,12.7-38.2,29.7c-7.2-7.8-17.6-12.8-29-12.8h-10.9c-4.9,0-8.9,4-8.9,8.9v10.9
		c0,21.8,17.7,39.5,39.5,39.5h8.2v9.7c-90.9,3.4-156.6,86.1-140.4,175.2c-10.8,0.4-19.7,9.7-19.7,20.6c0,9.6,6.8,18.1,16.3,20.1
		l11.2,2.4c-9.3,7.2-10.7,21.2-2.2,29.7c2.2,2.2,4.8,3.7,7.5,4.7c-1.5,2.8-2.2,5.8-2.2,9.1c0,5.2,2,10.1,5.7,13.7
		c3.6,3.6,8.4,5.6,13.5,5.7c0,4.9,1.9,9.8,5.7,13.5c6.1,6.1,15.3,7.3,22.8,3.4c2.5,7.7,10.4,13.2,18.4,13.2c5,0,9.9-1.9,13.7-5.7
		l14.3-14.3c13.4,3.9,27.3,5.8,41.3,5.8s28-2,41.3-5.8l14.3,14.3c7.6,7.6,19.9,7.6,27.4,0c2.2-2.2,3.7-4.7,4.7-7.5
		c7.4,3.9,16.7,2.6,22.8-3.4c3.7-3.7,5.6-8.6,5.7-13.5c5.1,0,9.9-2.1,13.5-5.7c5.9-5.9,7.3-15.4,3.5-22.8c2.8-0.9,5.4-2.5,7.5-4.7
		c8.4-8.4,6.9-22.6-2.2-29.7l11.2-2.4c9.4-2,16.3-10.5,16.3-20.1C421.9,328.2,413,318.9,402.2,318.5L402.2,318.5z M261.8,96.8
		c0-15.3,12.5-27.8,27.8-27.8h8.2v8.2c0,14.9-11.7,27.1-26.4,27.8l8.4-7.5c2.4-2.1,2.6-5.8,0.5-8.2c-2.1-2.4-5.8-2.6-8.2-0.5
		l-10.3,9.1V96.8z M240.1,103.6c-2.3-2.3-6-2.3-8.2,0c-2.3,2.3-2.3,6,0,8.2l10.1,10.1c-15.3,0-27.8-12.5-27.8-27.8v-8.2h8.2
		c15.3,0,27.8,12.4,27.8,27.8L240.1,103.6z M108.8,347.9c-4.1-0.9-7.1-4.6-7.1-8.8c0-5.6,5.2-9.9,10.7-8.8
		c1.8,6.8,4.1,13.4,6.8,19.8L108.8,347.9z M123.5,383.1c-3-3-3-8,0-11c0,0,23-23,23-23c3-3,8-3,11,0c3,3,3,7.9,0,11l-23,23
		C131.5,386.1,126.5,386.1,123.5,383.1L123.5,383.1z M134.5,410.6c-3-3-3-7.9,0-11l39.5-39.5c3-3,8-3,11,0h0c3,3,3,8,0,11
		l-39.5,39.5C142.5,413.6,137.5,413.5,134.5,410.6z M164.7,429.8c-3,3-7.9,3-11,0c-3-3-3-7.9,0-11l39.5-39.5c3-3,7.9-3,11,0
		c3,3,3,7.9,0,11L164.7,429.8z M215.1,417.7l-23,23c-3,3-7.9,3-11,0c-3-3-3-8,0-11l23-23c3-3,8-3,11,0
		C218.2,409.7,218.2,414.7,215.1,417.7z M223.4,398.5c-2.2-2.2-4.7-3.7-7.5-4.7c3.9-7.3,2.7-16.6-3.4-22.8
		c-3.7-3.7-8.6-5.6-13.5-5.7c0-5.1-2.1-9.9-5.7-13.5c-3.7-3.7-8.5-5.7-13.7-5.7c-3.2,0-6.3,0.8-9.1,2.2c-0.9-2.8-2.5-5.3-4.7-7.5h0
		c-3.7-3.7-8.5-5.7-13.7-5.7c-5.2,0-10.1,2-13.7,5.7l-7.3,7.3c-7.9-17.6-12.1-36.9-12.1-56.3c0-28.3,8.6-54.5,23.3-76.4
		c12.1,8.4,21.2,19.6,24.6,30.7c2.2,7.1,1.7,12.8,1.1,20.6c-0.8,9.6-1.7,21.7,1.9,40.7c1.8,9.3,3.7,15.1,5.1,19.2
		c1.1,3.1,4.5,4.6,7.4,3.5c3-1.1,4.6-4.4,3.5-7.4c-1.3-3.7-3-9-4.7-17.5c-3.4-17.5-2.5-28.2-1.8-37.6c0.7-8.5,1.3-15.8-1.6-25
		c-4.2-13.6-14.6-26.7-28.8-36.6c18.2-22.7,43.5-39.4,72.5-46.9c3.3,14.1,6.1,29.3,8.4,44.1c3.7,23.9,6.7,42.7,20.9,47.3
		c8.2,2.6,15.2-1.3,21.4-4.8c5.8-3.3,11.2-6.3,17.9-5.1c10.1,2,16.7,18,25.9,25.6c13.6,11.2,33.4,15.6,53.3,13.9
		c3.2-0.3,5.6-3.1,5.3-6.3c-0.3-3.2-3.1-5.6-6.3-5.3c-17.7,1.5-34.5-2.8-44.9-11.3c-11.6-9.5-14.1-24.8-31.1-28.1
		c-10.8-2.1-19.1,2.6-25.8,6.4c-5.4,3.1-8.9,4.9-12.1,3.9c-7.5-2.4-10.2-19.7-13-38c-2.3-15-5.1-30.4-8.5-44.7
		c7.5-1.3,15.1-1.9,22.9-1.9c75.6,0,137,61.5,137,137c0,19.4-4.2,38.7-12.1,56.3l-7.3-7.3c-3.7-3.7-8.5-5.7-13.7-5.7
		s-10.1,2-13.7,5.7h0c-2.2,2.2-3.7,4.8-4.7,7.5c-3-1.6-6.3-2.3-9.7-2.2c-13.1-11.9-39.9-35-59-25.8c-10.1,4.8-11.6,14.8-13.4,26.3
		c-1.3,8.3-2.7,17.8-7.4,28.4c-5.2,11.8-13.1,22-24.1,30.9C227.1,403.3,225.6,400.7,223.4,398.5L223.4,398.5z M288.6,398.5
		c-7.3,7.3-7.6,19-0.8,26.6c-10.4,2.5-21.1,3.7-31.9,3.7c-10.8,0-21.5-1.3-31.9-3.7c1-1.1,1.8-2.3,2.5-3.6
		c17-11.5,28.8-25.2,36.1-41.8c5.3-12,6.9-22.7,8.2-31.3c1.6-10.4,2.6-15.6,6.9-17.6c10.7-5.1,30.3,10.1,41.8,20.1
		c-4.2,3.7-6.5,8.8-6.6,14.4c-4.9,0-9.8,1.9-13.5,5.7c-6.2,6.2-7.3,15.4-3.4,22.8C293.4,394.8,290.8,396.3,288.6,398.5z
		 M330.9,440.7c-3,3-7.9,3-11,0l-23-23c-3-3-3-7.9,0-11h0c3-3,8-3,11,0l23,23C333.9,432.7,333.9,437.8,330.9,440.7z M358.3,429.8
		c-3,3-7.9,3-11,0c-6.3-6.3-32.8-32.8-39.5-39.5c-3-3-3-7.9,0-11c3-3,7.9-3,11,0l39.5,39.5C361.3,421.8,361.3,426.7,358.3,429.8z
		 M377.5,410.6c-3,3-8,3-11,0L327,371.1c-3-3-3-8,0-11h0c3-3,8-3,11,0c12.4,12.5,27.6,27.6,39.5,39.5
		C380.5,402.6,380.5,407.5,377.5,410.6z M388.5,383.1c-3,3-7.9,3-11,0l-23-23c-3-3-3-7.9,0-11h0c3-3,8-3,11,0
		c4.5,4.5,18.2,18.3,23,23C391.5,375.1,391.5,380.1,388.5,383.1z M403.2,347.9l-10.4,2.3c2.7-6.4,5-13.1,6.8-19.8
		c5.4-1.1,10.7,3.3,10.7,8.8C410.3,343.3,407.3,347,403.2,347.9L403.2,347.9z"/>
</g>
</svg>
